<?xml version="1.0" encoding="utf-8"?>
<!-- Generator: Adobe Illustrator 24.1.1, SVG Export Plug-In . SVG Version: 6.00 Build 0)  -->
<svg version="1.1" id="Layer_1" xmlns="http://www.w3.org/2000/svg" xmlns:xlink="http://www.w3.org/1999/xlink" x="0px" y="0px"
	 viewBox="0 0 337.3 337.3" style="enable-background:new 0 0 337.3 337.3;" xml:space="preserve">
<style type="text/css">
	.st1{fill:none;stroke:#9ECBFF;stroke-width:9;stroke-miterlimit:8;}
	.st5{fill:#9ECBFF;}
</style>
<polygon class="st1" points="71.5,273.5 90.3,254.8 247,254.8 265.8,273.5 265.8,300.1 247,318.9 90.3,318.9 71.5,300.1 71.5,273.5 
	"/>
<polygon class="st1" points="73.3,199.8 109.2,137.5 230,137.5 265.8,199.8 73.3,199.8 "/>
<path class="st1" d="M135.8,50.8c0,18.1,14.7,32.8,32.8,32.8c18.1,0,32.8-14.7,32.8-32.8S186.8,18,168.7,18
	C150.5,18,135.8,32.7,135.8,50.8L135.8,50.8z"/>
<g>
	<line class="st1" x1="169" y1="86" x2="169" y2="114.4"/>
	<polygon class="st5" points="153.3,109.8 169,137 184.7,109.8 			"/>
</g>
<g>
	<line class="st1" x1="170.5" y1="204" x2="170.5" y2="232.4"/>
	<polygon class="st5" points="154.8,227.8 170.5,255 186.2,227.8 			"/>
</g>
<g>
	<line class="st1" x1="230.5" y1="204" x2="230.5" y2="232.4"/>
	<polygon class="st5" points="214.8,227.8 230.5,255 246.2,227.8 			"/>
</g>
<g>
	<line class="st1" x1="110.5" y1="204" x2="110.5" y2="232.4"/>
	<polygon class="st5" points="94.8,227.8 110.5,255 126.2,227.8 			"/>
</g>
</svg>
